<svg xmlns="http://www.w3.org/2000/svg" width="512" height="512" viewBox="0 0 512 512">
  <g fill="none" fill-rule="evenodd">
    <circle cx="255.936" cy="255.936" r="222.144" fill="#439639"/>
    <path fill="#123A0D" fill-opacity=".1" d="M256.144,34 C378.830743,34 478.288,133.457257 478.288,256.144 C478.288,321.764489 449.83552,380.739545 404.594324,421.405406 C426.560172,386.94943 439.288,346.033087 439.288,302.144 C439.288,179.457257 339.830743,80 217.144,80 C160.07653,80 108.035049,101.518819 68.6911614,136.884855 C108.129525,75.0276965 177.345497,34 256.144,34 Z"/>
    <path fill="#12570A" fill-rule="nonzero" d="M255.936,488.08 C384.145591,488.08 488.08,384.145591 488.08,255.936 C488.08,127.726409 384.145591,23.792 255.936,23.792 C127.726409,23.792 23.792,127.726409 23.792,255.936 C23.792,384.145591 127.726409,488.08 255.936,488.08 Z M255.936,468.08 C138.772104,468.08 43.792,373.099896 43.792,255.936 C43.792,138.772104 138.772104,43.792 255.936,43.792 C373.099896,43.792 468.08,138.772104 468.08,255.936 C468.08,373.099896 373.099896,468.08 255.936,468.08 Z"/>
    <path fill="#12570A" fill-rule="nonzero" d="M400.776566,97.2258216 L380.823053,111.198916 C380.203015,111.184924 379.568177,111.081697 378.956252,111.117121 C359.404143,112.267115 305.047721,153.274357 278.670629,186.79787 C276.290302,189.823127 274.170457,192.731665 272.309034,195.528106 C268.069066,201.901645 263.48809,208.07109 257.917033,213.321222 C250.88591,219.946646 242.807102,226.555578 233.850485,232.827739 C224.894579,239.099402 215.922972,244.431636 207.292279,248.773906 C200.454167,252.215815 193.08941,254.410697 185.649519,256.215298 C182.384863,257.0075 178.927705,258.004439 175.272287,259.206969 C134.763947,272.521086 77.6376826,309.584267 69.8667428,327.562826 C69.6225328,328.127998 69.5028938,328.760631 69.3023406,329.350328 L49.3474052,343.324418 C45.8817725,345.751339 45.0384218,350.530361 47.4652581,353.996242 L57.2890911,368.02613 C59.3873711,371.022784 62.8455431,372.772572 66.5027529,372.690862 L75.0159319,372.496414 C77.6718168,372.435677 80.0934177,373.763855 81.5480839,375.98531 C91.8593884,391.728316 107.22828,407.268253 125.098167,418.373984 C153.917487,436.277124 197.239919,417.406798 224.425409,398.369279 C234.868883,391.05668 242.935917,383.716698 246.871173,378.431739 C257.055102,364.774287 256.293603,338.366135 252.191919,318.197293 C248.673917,300.917059 242.602363,285.919846 234.933284,274.646809 C233.449687,272.465744 233.116079,269.763325 234.121831,267.324516 C236.510945,261.535073 240.893288,255.95504 247.031901,251.656277 C253.171225,247.357017 259.91303,245.147005 266.169159,244.882336 C268.804134,244.770549 271.229206,246.008352 272.771595,248.149305 C280.740673,259.212259 292.755343,270.047612 307.788488,279.263995 C325.336115,290.016879 349.887352,299.764437 366.204104,294.864989 C372.516244,292.974936 382.164659,287.907258 392.614163,280.589654 C419.799653,261.552135 452.345429,227.287991 445.382345,194.084612 C441.058141,173.492019 431.714829,153.732473 420.449498,138.657556 C418.859263,136.529977 418.440052,133.800621 419.405486,131.325412 L422.499653,123.392499 C423.829187,119.98314 423.367449,116.135002 421.268671,113.137637 L411.444838,99.1077495 C409.0185,95.642579 404.242199,94.7989 400.776566,97.2258216 Z M237.173922,321.258014 C241.370793,341.862428 240.307588,361.605931 234.595812,369.272923 C222.741628,385.137333 162.406378,423.51106 133.190303,405.355981 C98.8805529,384.046068 78.5307741,346.149385 83.9355191,333.635887 C85.9697963,328.922446 95.7541615,320.238691 109.347029,310.720863 C128.977063,296.975765 156.534052,281.495273 180.055576,273.763869 C200.917631,266.905216 208.214544,269.682677 209.955776,270.695815 C221.626773,277.514526 232.314751,297.359139 237.173922,321.258014 Z M430.384267,197.237339 C437.455555,230.908499 380.754147,274.475472 361.798181,280.196402 C352.641505,282.941526 333.725817,277.18783 315.801983,266.197226 C295.008224,253.456003 280.018596,236.62376 277.603576,223.32643 C277.246678,221.342808 277.133186,213.535983 290.712767,196.275765 C316.618213,163.342129 367.30877,127.145115 379.85143,126.4186 C393.448162,125.619341 422.096265,157.704854 430.384267,197.237339 Z" opacity=".2"/>
    <path fill="#FFF" fill-rule="nonzero" d="M400.776566,87.2258216 L380.823053,101.198916 C380.203015,101.184924 379.568177,101.081697 378.956252,101.117121 C359.404143,102.267115 305.047721,143.274357 278.670629,176.79787 C276.290302,179.823127 274.170457,182.731665 272.309034,185.528106 C268.069066,191.901645 263.48809,198.07109 257.917033,203.321222 C250.88591,209.946646 242.807102,216.555578 233.850485,222.827739 C224.894579,229.099402 215.922972,234.431636 207.292279,238.773906 C200.454167,242.215815 193.08941,244.410697 185.649519,246.215298 C182.384863,247.0075 178.927705,248.004439 175.272287,249.206969 C134.763947,262.521086 77.6376826,299.584267 69.8667428,317.562826 C69.6225328,318.127998 69.5028938,318.760631 69.3023406,319.350328 L49.3474052,333.324418 C45.8817725,335.751339 45.0384218,340.530361 47.4652581,343.996242 L57.2890911,358.02613 C59.3873711,361.022784 62.8455431,362.772572 66.5027529,362.690862 L75.0159319,362.496414 C77.6718168,362.435677 80.0934177,363.763855 81.5480839,365.98531 C91.8593884,381.728316 107.22828,397.268253 125.098167,408.373984 C153.917487,426.277124 197.239919,407.406798 224.425409,388.369279 C234.868883,381.05668 242.935917,373.716698 246.871173,368.431739 C257.055102,354.774287 256.293603,328.366135 252.191919,308.197293 C248.673917,290.917059 242.602363,275.919846 234.933284,264.646809 C233.449687,262.465744 233.116079,259.763325 234.121831,257.324516 C236.510945,251.535073 240.893288,245.95504 247.031901,241.656277 C253.171225,237.357017 259.91303,235.147005 266.169159,234.882336 C268.804134,234.770549 271.229206,236.008352 272.771595,238.149305 C280.740673,249.212259 292.755343,260.047612 307.788488,269.263995 C325.336115,280.016879 349.887352,289.764437 366.204104,284.864989 C372.516244,282.974936 382.164659,277.907258 392.614163,270.589654 C419.799653,251.552135 452.345429,217.287991 445.382345,184.084612 C441.058141,163.492019 431.714829,143.732473 420.449498,128.657556 C418.859263,126.529977 418.440052,123.800621 419.405486,121.325412 L422.499653,113.392499 C423.829187,109.98314 423.367449,106.135002 421.268671,103.137637 L411.444838,89.1077495 C409.0185,85.642579 404.242199,84.7989 400.776566,87.2258216 Z M237.173922,311.258014 C241.370793,331.862428 240.307588,351.605931 234.595812,359.272923 C222.741628,375.137333 162.406378,413.51106 133.190303,395.355981 C98.8805529,374.046068 78.5307741,336.149385 83.9355191,323.635887 C85.9697963,318.922446 95.7541615,310.238691 109.347029,300.720863 C128.977063,286.975765 156.534052,271.495273 180.055576,263.763869 C200.917631,256.905216 208.214544,259.682677 209.955776,260.695815 C221.626773,267.514526 232.314751,287.359139 237.173922,311.258014 Z M430.384267,187.237339 C437.455555,220.908499 380.754147,264.475472 361.798181,270.196402 C352.641505,272.941526 333.725817,267.18783 315.801983,256.197226 C295.008224,243.456003 280.018596,226.62376 277.603576,213.32643 C277.246678,211.342808 277.133186,203.535983 290.712767,186.275765 C316.618213,153.342129 367.30877,117.145115 379.85143,116.4186 C393.448162,115.619341 422.096265,147.704854 430.384267,187.237339 Z"/>
  </g>
</svg>
